<svg width="25" height="19" viewBox="0 0 25 19" fill="none" xmlns="http://www.w3.org/2000/svg">
<path fill-rule="evenodd" clip-rule="evenodd" d="M8.77378 0.662345C8.70639 0.651721 8.63788 0.650103 8.57005 0.657532C7.22092 0.803514 5.16756 1.53182 3.95478 2.18954C3.87468 2.23323 3.80298 2.2908 3.74303 2.35958C3.23931 2.93549 2.78212 3.87394 2.42438 4.76266C2.05542 5.67385 1.75062 6.63636 1.57897 7.33258C1.01109 9.5945 0.701479 12.3104 0.65977 14.8867C0.658443 15.0153 0.689327 15.1421 0.749605 15.2557C1.23086 16.1749 2.26878 17.0267 3.30829 17.6492C4.35904 18.2796 5.58625 18.7769 6.57443 18.8732C6.69283 18.8845 6.81224 18.8682 6.92329 18.8256C7.03434 18.783 7.13402 18.7153 7.21451 18.6277C7.46155 18.3598 7.88185 17.7342 8.19948 17.2481C8.34386 17.0267 8.48022 16.815 8.58609 16.6465C9.64807 16.839 10.9796 16.9513 12.664 16.9513C14.3451 16.9513 15.6766 16.839 16.7386 16.6465C16.8445 16.8166 16.9792 17.0267 17.1236 17.2465C17.4412 17.7342 17.8615 18.3598 18.1102 18.6277C18.1907 18.7153 18.2904 18.783 18.4014 18.8256C18.5125 18.8682 18.6319 18.8845 18.7503 18.8732C19.7384 18.7769 20.9641 18.2796 22.0148 17.6492C23.0543 17.0267 24.0922 16.1749 24.5751 15.2557C24.6348 15.142 24.6651 15.0152 24.6633 14.8867C24.6232 12.3104 24.312 9.59289 23.7473 7.33098C23.5204 6.45739 23.2369 5.59947 22.8987 4.76266C22.541 3.87394 22.0838 2.93388 21.5817 2.35958C21.5212 2.29065 21.449 2.23307 21.3683 2.18954C20.1571 1.53182 18.1038 0.803514 16.753 0.657532C16.6857 0.650245 16.6178 0.651864 16.5509 0.662345C16.2486 0.72053 15.965 0.851584 15.7248 1.04414C15.1866 1.47733 14.7516 2.02473 14.451 2.64673C13.8565 2.6001 13.2603 2.57709 12.664 2.57775C12.0191 2.57775 11.4223 2.60182 10.8721 2.64513C10.5713 2.02371 10.1363 1.47687 9.59834 1.04414C9.35856 0.851818 9.07556 0.720777 8.77378 0.662345ZM18.3075 16.2423C18.5333 16.59 18.7648 16.9338 19.0021 17.2738C19.6374 17.1294 20.4475 16.7925 21.2239 16.3273C22.095 15.8059 22.7864 15.2044 23.1201 14.6958C23.0672 12.2799 22.7688 9.77096 22.2538 7.70476C22.0441 6.9 21.7826 6.10963 21.471 5.33857C21.1501 4.53968 20.8052 3.86271 20.5053 3.4745C19.4625 2.93388 17.8182 2.36279 16.7466 2.20718C16.7144 2.22674 16.6833 2.24817 16.6536 2.27135C16.5207 2.37593 16.3991 2.49422 16.291 2.62427C16.2278 2.69958 16.1673 2.77717 16.1098 2.85688C16.599 2.94672 17.0354 3.0542 17.422 3.17291C18.5193 3.50979 19.3101 3.97501 19.6967 4.48995C19.8193 4.65333 19.8719 4.85869 19.843 5.06086C19.8141 5.26302 19.7061 5.44544 19.5427 5.56797C19.4618 5.62864 19.3698 5.67279 19.2718 5.69788C19.1739 5.72298 19.0719 5.72853 18.9718 5.71423C18.7697 5.68535 18.5873 5.57734 18.4647 5.41397C18.3701 5.28884 17.9578 4.94875 16.9696 4.64395C16.0151 4.35199 14.6114 4.11778 12.664 4.11778C10.7165 4.11778 9.31119 4.35199 8.3583 4.64556C7.37011 4.95036 6.95784 5.28724 6.86319 5.41397C6.80252 5.49486 6.72651 5.56302 6.63949 5.61454C6.55248 5.66606 6.45618 5.69993 6.35607 5.71423C6.15391 5.74311 5.94855 5.6905 5.78517 5.56797C5.70427 5.5073 5.63612 5.43129 5.5846 5.34428C5.53308 5.25727 5.4992 5.16096 5.4849 5.06086C5.45602 4.85869 5.50864 4.65333 5.63117 4.48995C6.01778 3.9734 6.80865 3.51139 7.90591 3.17451C8.29092 3.0542 8.72726 2.94832 9.21494 2.85849C9.15727 2.7779 9.09626 2.69976 9.03206 2.62427C8.92445 2.4943 8.80347 2.37601 8.67111 2.27135C8.64086 2.24812 8.60925 2.22669 8.57647 2.20718C7.50647 2.36279 5.86217 2.93388 4.81945 3.4745C4.51786 3.86432 4.17456 4.53968 3.85212 5.33857C3.51042 6.18879 3.22648 7.08233 3.07087 7.70476C2.55432 9.77096 2.25594 12.2799 2.20461 14.6958C2.53828 15.206 3.22808 15.8059 4.09916 16.3289C4.8772 16.7941 5.68571 17.131 6.32258 17.2738C6.56225 16.9355 6.79385 16.5916 7.01719 16.2423C5.7579 15.7947 5.08253 15.1803 4.64298 14.5226C4.58695 14.4383 4.54806 14.3438 4.52853 14.2445C4.50901 14.1452 4.50923 14.0431 4.52919 13.9439C4.54915 13.8447 4.58846 13.7503 4.64487 13.6663C4.70128 13.5823 4.77368 13.5102 4.85795 13.4542C4.94221 13.3982 5.03669 13.3593 5.13599 13.3397C5.23528 13.3202 5.33745 13.3204 5.43666 13.3404C5.53587 13.3604 5.63018 13.3997 5.7142 13.4561C5.79822 13.5125 5.8703 13.5849 5.92634 13.6691C6.34343 14.298 7.4407 15.4113 12.664 15.4113C17.8888 15.4113 18.9845 14.298 19.4016 13.6691C19.5147 13.499 19.6909 13.3807 19.8912 13.3404C20.0916 13.3001 20.2998 13.341 20.47 13.4542C20.6401 13.5674 20.7584 13.7435 20.7987 13.9439C20.839 14.1442 20.7981 14.3524 20.6849 14.5226C20.2454 15.1803 19.5684 15.7963 18.3075 16.2423ZM7.17761 8.9817C7.56903 8.5614 8.10002 8.32398 8.65347 8.32077C9.20692 8.32398 9.7379 8.5614 10.1293 8.9817C10.5191 9.4036 10.7389 9.97309 10.7389 10.5666C10.7389 11.1602 10.5191 11.7297 10.1293 12.1516C9.7379 12.5719 9.20692 12.8093 8.65347 12.8125C8.37527 12.8096 8.10066 12.7494 7.84674 12.6357C7.59283 12.522 7.36505 12.3572 7.17761 12.1516C6.78235 11.7187 6.56469 11.1528 6.56802 10.5666C6.56802 9.97309 6.78779 9.4036 7.17761 8.9817ZM16.6744 8.32077C16.121 8.32398 15.59 8.5614 15.1986 8.9817C14.8088 9.4036 14.589 9.97309 14.589 10.5666C14.589 11.1602 14.8088 11.7297 15.1986 12.1516C15.59 12.5719 16.121 12.8093 16.6744 12.8125C17.2279 12.8093 17.7589 12.5719 18.1503 12.1516C18.5401 11.7297 18.7599 11.1602 18.7599 10.5666C18.7599 9.97309 18.5401 9.4036 18.1503 8.9817C17.9629 8.7761 17.7351 8.61132 17.4812 8.49761C17.2272 8.3839 16.9526 8.3237 16.6744 8.32077Z" fill="white"/>
</svg>
