<svg width="1393" height="94" viewBox="0 0 1393 94" fill="none" xmlns="http://www.w3.org/2000/svg">
<path d="M202.561 31.33L206.585 31.4825L186.556 53.5175L182.5 53.5175L202.561 31.33Z" fill="#00E37E"/>
<path d="M214.646 31.33L218.67 31.4825L198.641 53.5175L194.585 53.5175L214.646 31.33Z" fill="#00E37E"/>
<path d="M226.731 31.33L230.756 31.4825L210.726 53.5175L206.67 53.5175L226.731 31.33Z" fill="#00E37E"/>
<path d="M238.817 31.33L242.841 31.4825L222.812 53.5175L218.756 53.5175L238.817 31.33Z" fill="#00E37E"/>
<path d="M250.902 31.33L254.926 31.4825L234.897 53.5175L230.841 53.5175L250.902 31.33Z" fill="#00E37E"/>
<path d="M262.987 31.33L267.011 31.4825L246.982 53.5175L242.926 53.5175L262.987 31.33Z" fill="#00E37E"/>
<path d="M275.072 31.33L279.096 31.4825L259.067 53.5175L255.011 53.5175L275.072 31.33Z" fill="#00E37E"/>
<path d="M287.157 31.33L291.182 31.4825L271.152 53.5175L267.096 53.5175L287.157 31.33Z" fill="#00E37E"/>
<path d="M299.243 31.33L303.267 31.4825L283.238 53.5175L279.182 53.5175L299.243 31.33Z" fill="#00E37E"/>
<path d="M311.328 31.33L315.352 31.4825L295.323 53.5175L291.267 53.5175L311.328 31.33Z" fill="#00E37E"/>
<path d="M323.413 31.33L327.437 31.4825L307.408 53.5175L303.352 53.5175L323.413 31.33Z" fill="#00E37E"/>
<path d="M335.498 31.33L339.522 31.4825L319.493 53.5175L315.437 53.5175L335.498 31.33Z" fill="#00E37E"/>
<path d="M347.583 31.33L351.608 31.4825L331.578 53.5175L327.522 53.5175L347.583 31.33Z" fill="#00E37E"/>
<path d="M359.669 31.33L363.693 31.4825L343.664 53.5175L339.608 53.5175L359.669 31.33Z" fill="#00E37E"/>
<path d="M371.754 31.33L375.778 31.4825L355.749 53.5175L351.693 53.5175L371.754 31.33Z" fill="#00E37E"/>
<path d="M383.839 31.33L387.863 31.4825L367.834 53.5175L363.778 53.5175L383.839 31.33Z" fill="#00E37E"/>
<path d="M395.924 31.33L399.948 31.4825L379.919 53.5175L375.863 53.5175L395.924 31.33Z" fill="#00E37E"/>
<path d="M408.009 31.33L412.034 31.4825L392.004 53.5175L387.948 53.5175L408.009 31.33Z" fill="#00E37E"/>
<path d="M420.095 31.33L424.119 31.4825L404.09 53.5175L400.034 53.5175L420.095 31.33Z" fill="#00E37E"/>
<path d="M432.18 31.33L436.204 31.4825L416.175 53.5175L412.119 53.5175L432.18 31.33Z" fill="#00E37E"/>
<path d="M444.265 31.33L448.289 31.4825L428.26 53.5175L424.204 53.5175L444.265 31.33Z" fill="#00E37E"/>
<path d="M456.35 31.33L460.374 31.4825L440.345 53.5175L436.289 53.5175L456.35 31.33Z" fill="#00E37E"/>
<path d="M468.435 31.33L472.46 31.4825L452.43 53.5175L448.374 53.5175L468.435 31.33Z" fill="#00E37E"/>
<path d="M480.521 31.33L484.545 31.4825L464.516 53.5175L460.46 53.5175L480.521 31.33Z" fill="#00E37E"/>
<path d="M492.606 31.33L496.63 31.4825L476.601 53.5175L472.545 53.5175L492.606 31.33Z" fill="#00E37E"/>
<path d="M504.691 31.33L508.715 31.4825L488.686 53.5175L484.63 53.5175L504.691 31.33Z" fill="#00E37E"/>
<path d="M516.776 31.33L520.801 31.4825L500.771 53.5175L496.715 53.5175L516.776 31.33Z" fill="#00E37E"/>
<path d="M528.861 31.33L532.886 31.4825L512.857 53.5175L508.801 53.5175L528.861 31.33Z" fill="#00E37E"/>
<path d="M540.947 31.33L544.971 31.4825L524.942 53.5175L520.886 53.5175L540.947 31.33Z" fill="#00E37E"/>
<path d="M553.032 31.33L557.056 31.4825L537.027 53.5175L532.971 53.5175L553.032 31.33Z" fill="#00E37E"/>
<path d="M565.117 31.33L569.141 31.4825L549.112 53.5175L545.056 53.5175L565.117 31.33Z" fill="#00E37E"/>
<path d="M577.202 31.33L581.227 31.4825L561.197 53.5175L557.141 53.5175L577.202 31.33Z" fill="#00E37E"/>
<path d="M589.288 31.33L593.312 31.4825L573.283 53.5175L569.227 53.5175L589.288 31.33Z" fill="#00E37E"/>
<path d="M601.373 31.33L605.397 31.4825L585.368 53.5175L581.312 53.5175L601.373 31.33Z" fill="#00E37E"/>
<path d="M613.458 31.33L617.482 31.4825L597.453 53.5175L593.397 53.5175L613.458 31.33Z" fill="#00E37E"/>
<path d="M625.543 31.33L629.567 31.4825L609.538 53.5175L605.482 53.5175L625.543 31.33Z" fill="#00E37E"/>
<path d="M637.628 31.33L641.653 31.4825L621.623 53.5175L617.567 53.5175L637.628 31.33Z" fill="#00E37E"/>
<path d="M649.714 31.33L653.738 31.4825L633.709 53.5175L629.653 53.5175L649.714 31.33Z" fill="#00E37E"/>
<path d="M661.799 31.33L665.823 31.4825L645.794 53.5175L641.738 53.5175L661.799 31.33Z" fill="#00E37E"/>
<path d="M673.884 31.33L677.908 31.4825L657.879 53.5175L653.823 53.5175L673.884 31.33Z" fill="#00E37E"/>
<path d="M685.969 31.33L689.993 31.4825L669.964 53.5175L665.908 53.5175L685.969 31.33Z" fill="#00E37E"/>
<path d="M698.054 31.33L702.079 31.4825L682.049 53.5175L677.993 53.5175L698.054 31.33Z" fill="#00E37E"/>
<path d="M710.14 31.33L714.164 31.4825L694.135 53.5175L690.079 53.5175L710.14 31.33Z" fill="#00E37E"/>
<path d="M722.225 31.33L726.249 31.4825L706.22 53.5175L702.164 53.5175L722.225 31.33Z" fill="#00E37E"/>
<path d="M734.31 31.33L738.334 31.4825L718.305 53.5175L714.249 53.5175L734.31 31.33Z" fill="#00E37E"/>
<path d="M746.395 31.33L750.419 31.4825L730.39 53.5175L726.334 53.5175L746.395 31.33Z" fill="#00E37E"/>
<path d="M758.48 31.33L762.505 31.4825L742.475 53.5175L738.419 53.5175L758.48 31.33Z" fill="#00E37E"/>
<path d="M770.566 31.33L774.59 31.4825L754.561 53.5175L750.505 53.5175L770.566 31.33Z" fill="#00E37E"/>
<path d="M782.651 31.33L786.675 31.4825L766.646 53.5175L762.59 53.5175L782.651 31.33Z" fill="#00E37E"/>
<path d="M794.736 31.33L798.76 31.4825L778.731 53.5175L774.675 53.5175L794.736 31.33Z" fill="#00E37E"/>
<path d="M806.821 31.33L810.845 31.4825L790.816 53.5175L786.76 53.5175L806.821 31.33Z" fill="#00E37E"/>
<path d="M818.906 31.33L822.931 31.4825L802.901 53.5175L798.845 53.5175L818.906 31.33Z" fill="#00E37E"/>
<path d="M830.992 31.33L835.016 31.4825L814.987 53.5175L810.931 53.5175L830.992 31.33Z" fill="#00E37E"/>
<path d="M843.077 31.33L847.101 31.4825L827.072 53.5175L823.016 53.5175L843.077 31.33Z" fill="#00E37E"/>
<path d="M855.162 31.33L859.186 31.4825L839.157 53.5175L835.101 53.5175L855.162 31.33Z" fill="#00E37E"/>
<path d="M867.247 31.33L871.272 31.4825L851.242 53.5175L847.186 53.5175L867.247 31.33Z" fill="#00E37E"/>
<path d="M879.332 31.33L883.357 31.4825L863.328 53.5175L859.272 53.5175L879.332 31.33Z" fill="#00E37E"/>
<path d="M891.418 31.33L895.442 31.4825L875.413 53.5175L871.357 53.5175L891.418 31.33Z" fill="#00E37E"/>
<path d="M903.503 31.33L907.527 31.4825L887.498 53.5175L883.442 53.5175L903.503 31.33Z" fill="#00E37E"/>
<path d="M915.588 31.33L919.612 31.4825L899.583 53.5175L895.527 53.5175L915.588 31.33Z" fill="#00E37E"/>
<path d="M927.673 31.33L931.698 31.4825L911.668 53.5175L907.612 53.5175L927.673 31.33Z" fill="#00E37E"/>
<path d="M939.758 31.33L943.783 31.4825L923.754 53.5175L919.698 53.5175L939.758 31.33Z" fill="#00E37E"/>
<path d="M951.844 31.33L955.868 31.4825L935.839 53.5175L931.783 53.5175L951.844 31.33Z" fill="#00E37E"/>
<path d="M963.929 31.33L967.953 31.4825L947.924 53.5175L943.868 53.5175L963.929 31.33Z" fill="#00E37E"/>
<path d="M976.014 31.33L980.038 31.4825L960.009 53.5175L955.953 53.5175L976.014 31.33Z" fill="#00E37E"/>
<path d="M988.099 31.33L992.124 31.4825L972.094 53.5175L968.038 53.5175L988.099 31.33Z" fill="#00E37E"/>
<path d="M1000.18 31.33L1004.21 31.4825L984.18 53.5175L980.124 53.5175L1000.18 31.33Z" fill="#00E37E"/>
<path d="M1012.27 31.33L1016.29 31.4825L996.265 53.5175L992.209 53.5175L1012.27 31.33Z" fill="#00E37E"/>
<path d="M1024.35 31.33L1028.38 31.4825L1008.35 53.5175L1004.29 53.5175L1024.35 31.33Z" fill="#00E37E"/>
<path d="M1036.44 31.33L1040.46 31.4825L1020.44 53.5175L1016.38 53.5175L1036.44 31.33Z" fill="#00E37E"/>
<path d="M1048.53 31.33L1052.55 31.4825L1032.52 53.5175L1028.46 53.5175L1048.53 31.33Z" fill="#00E37E"/>
<path d="M1060.61 31.33L1064.63 31.4825L1044.61 53.5175L1040.55 53.5175L1060.61 31.33Z" fill="#00E37E"/>
<path d="M1072.7 31.33L1076.72 31.4825L1056.69 53.5175L1052.63 53.5175L1072.7 31.33Z" fill="#00E37E"/>
<path d="M1084.78 31.33L1088.81 31.4825L1068.78 53.5175L1064.72 53.5175L1084.78 31.33Z" fill="#00E37E"/>
<path d="M1096.87 31.33L1100.89 31.4825L1080.86 53.5175L1076.81 53.5175L1096.87 31.33Z" fill="#00E37E"/>
<path d="M1108.95 31.33L1112.98 31.4825L1092.95 53.5175L1088.89 53.5175L1108.95 31.33Z" fill="#00E37E"/>
<path d="M1121.04 31.33L1125.06 31.4825L1105.03 53.5175L1100.98 53.5175L1121.04 31.33Z" fill="#00E37E"/>
<path d="M1133.12 31.33L1137.15 31.4825L1117.12 53.5175L1113.06 53.5175L1133.12 31.33Z" fill="#00E37E"/>
<path d="M1145.21 31.33L1149.23 31.4825L1129.2 53.5175L1125.15 53.5175L1145.21 31.33Z" fill="#00E37E"/>
<path d="M1157.29 31.33L1161.32 31.4825L1141.29 53.5175L1137.23 53.5175L1157.29 31.33Z" fill="#00E37E"/>
<path d="M1169.38 31.33L1173.4 31.4825L1153.37 53.5175L1149.32 53.5175L1169.38 31.33Z" fill="#00E37E"/>
<path d="M1181.46 31.33L1185.49 31.4825L1165.46 53.5175L1161.4 53.5175L1181.46 31.33Z" fill="#00E37E"/>
<path d="M1193.55 31.33L1197.57 31.4825L1177.54 53.5175L1173.49 53.5175L1193.55 31.33Z" fill="#00E37E"/>
<path d="M1205.63 31.33L1209.66 31.4825L1189.63 53.5175L1185.57 53.5175L1205.63 31.33Z" fill="#00E37E"/>
<path d="M0 86C0 90.4183 3.58172 94 8 94C12.4183 94 16 90.4183 16 86C16 81.5817 12.4183 78 8 78C3.58172 78 0 81.5817 0 86ZM97 86V87.5H97.6908L98.1399 86.9751L97 86ZM168 3L167.997 1.5L167.308 1.50131L166.86 2.02494L168 3ZM8 87.5H97V84.5H8V87.5ZM98.1399 86.9751L169.14 3.97506L166.86 2.02494L95.8601 85.0249L98.1399 86.9751ZM168.003 4.5L696.503 3.5L696.497 0.500003L167.997 1.5L168.003 4.5Z" fill="white"/>
<path d="M1393 86C1393 90.4183 1389.42 94 1385 94C1380.58 94 1377 90.4183 1377 86C1377 81.5817 1380.58 78 1385 78C1389.42 78 1393 81.5817 1393 86ZM1296 86V87.5H1295.31L1294.86 86.9751L1296 86ZM1225 3L1225 1.5L1225.69 1.50131L1226.14 2.02494L1225 3ZM1385 87.5H1296V84.5H1385V87.5ZM1294.86 86.9751L1223.86 3.97506L1226.14 2.02494L1297.14 85.0249L1294.86 86.9751ZM1225 4.5L696.497 3.5L696.503 0.500003L1225 1.5L1225 4.5Z" fill="white"/>
</svg>
