<svg width="132" height="120" viewBox="0 0 132 120" fill="none" xmlns="http://www.w3.org/2000/svg">
<path d="M8.59948 4.48535C8.59948 6.74943 6.76408 8.58483 4.5 8.58483C2.23592 8.58483 0.40052 6.74943 0.40052 4.48535C0.40052 2.22127 2.23592 0.38587 4.5 0.38587C6.76408 0.38587 8.59948 2.22127 8.59948 4.48535ZM4.5 36.0001V36.7688H3.73135V36.0001H4.5ZM126.902 36.0001V35.2315H127.671V36.0001H126.902ZM131.001 115.5C131.001 117.764 129.166 119.599 126.902 119.599C124.638 119.599 122.802 117.764 122.802 115.5C122.802 113.236 124.638 111.401 126.902 111.401C129.166 111.401 131.001 113.236 131.001 115.5ZM5.26865 4.48535V36.0001H3.73135V4.48535H5.26865ZM4.5 35.2315H126.902V36.7688H4.5V35.2315ZM127.671 36.0001V115.5H126.133V36.0001H127.671Z" fill="white"/>
</svg>
