<svg width="251" height="71" viewBox="0 0 251 71" fill="none" xmlns="http://www.w3.org/2000/svg">
<path d="M47.2838 7.12622C47.2838 10.0717 49.6716 12.4596 52.6171 12.4596C55.5626 12.4596 57.9504 10.0717 57.9504 7.12622C57.9504 4.1807 55.5626 1.79289 52.6171 1.79289C49.6716 1.79289 47.2838 4.1807 47.2838 7.12622ZM6 7.12622V6.12622H5V7.12622H6ZM0.666667 65.3234C0.666667 68.2689 3.05448 70.6567 6 70.6567C8.94552 70.6567 11.3333 68.2689 11.3333 65.3234C11.3333 62.3778 8.94552 59.99 6 59.99C3.05448 59.99 0.666667 62.3778 0.666667 65.3234ZM52.6171 6.12622H6V8.12622H52.6171V6.12622ZM5 7.12622V65.3234H7V7.12622H5Z" fill="white"/>
<path d="M204.037 7.12622C204.037 10.0717 201.649 12.4596 198.704 12.4596C195.758 12.4596 193.37 10.0717 193.37 7.12622C193.37 4.1807 195.758 1.79289 198.704 1.79289C201.649 1.79289 204.037 4.1807 204.037 7.12622ZM245.321 7.12622V6.12622H246.321V7.12622H245.321ZM250.654 65.3234C250.654 68.2689 248.266 70.6567 245.321 70.6567C242.375 70.6567 239.987 68.2689 239.987 65.3234C239.987 62.3778 242.375 59.99 245.321 59.99C248.266 59.99 250.654 62.3778 250.654 65.3234ZM198.704 6.12622H245.321V8.12622H198.704V6.12622ZM246.321 7.12622V65.3234H244.321V7.12622H246.321Z" fill="white"/>
<g opacity="0.7">
<path d="M77.8917 0.789812L80.2815 0.880368L68.3872 13.9658L65.9786 13.9658L77.8917 0.789812Z" fill="#00E37E"/>
<path d="M84.0719 0.789812L86.4617 0.880368L74.5674 13.9658L72.1587 13.9658L84.0719 0.789812Z" fill="#00E37E"/>
<path d="M90.2518 0.789812L92.6416 0.880368L80.7473 13.9658L78.3387 13.9658L90.2518 0.789812Z" fill="#00E37E"/>
<path d="M96.432 0.789812L98.8218 0.880368L86.9275 13.9658L84.5189 13.9658L96.432 0.789812Z" fill="#00E37E"/>
<path d="M102.612 0.789812L105.002 0.880368L93.1077 13.9658L90.699 13.9658L102.612 0.789812Z" fill="#00E37E"/>
<path d="M108.792 0.789812L111.182 0.880368L99.2874 13.9658L96.8787 13.9658L108.792 0.789812Z" fill="#00E37E"/>
<path d="M114.972 0.789812L117.362 0.880368L105.468 13.9658L103.059 13.9658L114.972 0.789812Z" fill="#00E37E"/>
<path d="M121.152 0.789812L123.542 0.880368L111.647 13.9658L109.239 13.9658L121.152 0.789812Z" fill="#00E37E"/>
<path d="M127.332 0.789812L129.722 0.880368L117.828 13.9658L115.419 13.9658L127.332 0.789812Z" fill="#00E37E"/>
<path d="M133.512 0.789812L135.902 0.880368L124.008 13.9658L121.599 13.9658L133.512 0.789812Z" fill="#00E37E"/>
<path d="M139.692 0.789812L142.082 0.880368L130.188 13.9658L127.779 13.9658L139.692 0.789812Z" fill="#00E37E"/>
<path d="M145.872 0.789812L148.262 0.880368L136.368 13.9658L133.959 13.9658L145.872 0.789812Z" fill="#00E37E"/>
<path d="M152.053 0.789812L154.442 0.880368L142.548 13.9658L140.139 13.9658L152.053 0.789812Z" fill="#00E37E"/>
<path d="M158.232 0.789812L160.622 0.880368L148.728 13.9658L146.319 13.9658L158.232 0.789812Z" fill="#00E37E"/>
<path d="M164.412 0.789812L166.802 0.880368L154.908 13.9658L152.499 13.9658L164.412 0.789812Z" fill="#00E37E"/>
<path d="M170.592 0.789812L172.982 0.880368L161.088 13.9658L158.679 13.9658L170.592 0.789812Z" fill="#00E37E"/>
<path d="M176.773 0.789812L179.162 0.880368L167.268 13.9658L164.859 13.9658L176.773 0.789812Z" fill="#00E37E"/>
<path d="M182.953 0.789812L185.343 0.880368L173.448 13.9658L171.04 13.9658L182.953 0.789812Z" fill="#00E37E"/>
</g>
</svg>
