<svg width="426" height="1821" viewBox="0 0 426 1821" fill="none" xmlns="http://www.w3.org/2000/svg">
<path d="M6 6V5H5V6H6ZM0.666667 1815C0.666667 1817.95 3.05448 1820.33 6 1820.33C8.94552 1820.33 11.3333 1817.95 11.3333 1815C11.3333 1812.05 8.94552 1809.67 6 1809.67C3.05448 1809.67 0.666667 1812.05 0.666667 1815ZM415.167 6C415.167 8.94552 417.554 11.3333 420.5 11.3333C423.446 11.3333 425.833 8.94552 425.833 6C425.833 3.05448 423.446 0.666667 420.5 0.666667C417.554 0.666667 415.167 3.05448 415.167 6ZM5 6V1815H7V6H5ZM6 7H420.5V5H6V7Z" fill="white"/>
</svg>
