<svg width="187" height="54" viewBox="0 0 187 54" fill="none" xmlns="http://www.w3.org/2000/svg">
<path d="M35.3927 5.66748C35.3927 7.87662 37.1836 9.66748 39.3927 9.66748C41.6018 9.66748 43.3927 7.87662 43.3927 5.66748C43.3927 3.45834 41.6018 1.66748 39.3927 1.66748C37.1836 1.66748 35.3927 3.45834 35.3927 5.66748ZM4.65259 5.66748V4.91748H3.90259V5.66748H4.65259ZM0.652588 49.0373C0.652588 51.2464 2.44345 53.0373 4.65259 53.0373C6.86173 53.0373 8.65259 51.2464 8.65259 49.0373C8.65259 46.8282 6.86173 45.0373 4.65259 45.0373C2.44345 45.0373 0.652588 46.8282 0.652588 49.0373ZM39.3927 4.91748H4.65259V6.41748H39.3927V4.91748ZM3.90259 5.66748V49.0373H5.40259V5.66748H3.90259Z" fill="white"/>
<path d="M152.26 5.66748C152.26 7.87662 150.469 9.66748 148.26 9.66748C146.051 9.66748 144.26 7.87662 144.26 5.66748C144.26 3.45834 146.051 1.66748 148.26 1.66748C150.469 1.66748 152.26 3.45834 152.26 5.66748ZM183 5.66748V4.91748H183.75V5.66748H183ZM187 49.0373C187 51.2464 185.209 53.0373 183 53.0373C180.791 53.0373 179 51.2464 179 49.0373C179 46.8282 180.791 45.0373 183 45.0373C185.209 45.0373 187 46.8282 187 49.0373ZM148.26 4.91748H183V6.41748H148.26V4.91748ZM183.75 5.66748V49.0373H182.25V5.66748H183.75Z" fill="white"/>
<g opacity="0.7">
<path d="M58.2279 0.94552L60.0089 1.013L51.145 10.7646L49.35 10.7646L58.2279 0.94552Z" fill="#00E37E"/>
<path d="M62.8334 0.94552L64.6143 1.013L55.7504 10.7646L53.9555 10.7646L62.8334 0.94552Z" fill="#00E37E"/>
<path d="M67.4391 0.94552L69.2201 1.013L60.3561 10.7646L58.5612 10.7646L67.4391 0.94552Z" fill="#00E37E"/>
<path d="M72.0446 0.94552L73.8255 1.013L64.9616 10.7646L63.1666 10.7646L72.0446 0.94552Z" fill="#00E37E"/>
<path d="M76.6501 0.94552L78.431 1.013L69.5671 10.7646L67.7721 10.7646L76.6501 0.94552Z" fill="#00E37E"/>
<path d="M81.255 0.94552L83.036 1.013L74.1721 10.7646L72.3771 10.7646L81.255 0.94552Z" fill="#00E37E"/>
<path d="M85.8608 0.94552L87.6417 1.013L78.7778 10.7646L76.9828 10.7646L85.8608 0.94552Z" fill="#00E37E"/>
<path d="M90.4667 0.94552L92.2476 1.013L83.3837 10.7646L81.5888 10.7646L90.4667 0.94552Z" fill="#00E37E"/>
<path d="M95.0724 0.94552L96.8534 1.013L87.9894 10.7646L86.1945 10.7646L95.0724 0.94552Z" fill="#00E37E"/>
<path d="M99.6774 0.94552L101.458 1.013L92.5944 10.7646L90.7994 10.7646L99.6774 0.94552Z" fill="#00E37E"/>
<path d="M104.283 0.94552L106.064 1.013L97.1999 10.7646L95.4049 10.7646L104.283 0.94552Z" fill="#00E37E"/>
<path d="M108.889 0.94552L110.67 1.013L101.806 10.7646L100.011 10.7646L108.889 0.94552Z" fill="#00E37E"/>
<path d="M113.494 0.94552L115.275 1.013L106.411 10.7646L104.616 10.7646L113.494 0.94552Z" fill="#00E37E"/>
<path d="M118.099 0.94552L119.88 1.013L111.016 10.7646L109.221 10.7646L118.099 0.94552Z" fill="#00E37E"/>
<path d="M122.705 0.94552L124.486 1.013L115.622 10.7646L113.827 10.7646L122.705 0.94552Z" fill="#00E37E"/>
<path d="M127.31 0.94552L129.091 1.013L120.227 10.7646L118.433 10.7646L127.31 0.94552Z" fill="#00E37E"/>
<path d="M131.916 0.94552L133.697 1.013L124.833 10.7646L123.038 10.7646L131.916 0.94552Z" fill="#00E37E"/>
<path d="M136.521 0.94552L138.302 1.013L129.438 10.7646L127.643 10.7646L136.521 0.94552Z" fill="#00E37E"/>
</g>
</svg>
