<svg width="132" height="120" viewBox="0 0 132 120" fill="none" xmlns="http://www.w3.org/2000/svg">
<path d="M122.802 4.48535C122.802 6.74943 124.638 8.58483 126.902 8.58483C129.166 8.58483 131.001 6.74943 131.001 4.48535C131.001 2.22127 129.166 0.38587 126.902 0.38587C124.638 0.38587 122.802 2.22127 122.802 4.48535ZM126.902 36.0001V36.7688H127.671V36.0001H126.902ZM4.5 36.0001V35.2315H3.73135V36.0001H4.5ZM0.400519 115.5C0.400519 117.764 2.23592 119.599 4.5 119.599C6.76408 119.599 8.59948 117.764 8.59948 115.5C8.59948 113.236 6.76408 111.401 4.5 111.401C2.23592 111.401 0.400519 113.236 0.400519 115.5ZM126.133 4.48535V36.0001H127.671V4.48535H126.133ZM126.902 35.2315H4.5V36.7688H126.902V35.2315ZM3.73135 36.0001V115.5H5.26865V36.0001H3.73135Z" fill="white"/>
</svg>
