<svg width="90" height="38" viewBox="0 0 90 38" fill="none" xmlns="http://www.w3.org/2000/svg">
<path d="M0.789955 4.58252C0.789955 6.68815 2.49691 8.3951 4.60254 8.3951C6.70817 8.3951 8.41512 6.68815 8.41512 4.58252C8.41512 2.47689 6.70817 0.769936 4.60254 0.769936C2.49691 0.769936 0.789955 2.47689 0.789955 4.58252ZM4.60254 33.8918H3.88768V34.6066H4.60254V33.8918ZM82.1874 33.8918C82.1874 35.9974 83.8944 37.7043 86 37.7043C88.1056 37.7043 89.8126 35.9974 89.8126 33.8918C89.8126 31.7861 88.1056 30.0792 86 30.0792C83.8944 30.0792 82.1874 31.7861 82.1874 33.8918ZM3.88768 4.58252V33.8918H5.3174V4.58252H3.88768ZM4.60254 34.6066H86V33.1769H4.60254V34.6066Z" fill="#00FF8E"/>
</svg>
