<svg width="392" height="110" viewBox="0 0 392 110" fill="none" xmlns="http://www.w3.org/2000/svg">
<path d="M74.6865 11.3152C74.6865 14.2607 77.0743 16.6485 80.0199 16.6485C82.9654 16.6485 85.3532 14.2607 85.3532 11.3152C85.3532 8.36967 82.9654 5.98185 80.0199 5.98185C77.0743 5.98185 74.6865 8.36967 74.6865 11.3152ZM6 11.3152V10.3152H5V11.3152H6ZM0.666667 103.722C0.666667 106.668 3.05448 109.055 6 109.055C8.94552 109.055 11.3333 106.668 11.3333 103.722C11.3333 100.777 8.94552 98.3888 6 98.3888C3.05448 98.3888 0.666667 100.777 0.666667 103.722ZM80.0199 10.3152H6V12.3152H80.0199V10.3152ZM5 11.3152V103.722H7V11.3152H5Z" fill="white"/>
<path d="M317.313 11.3152C317.313 14.2607 314.926 16.6485 311.98 16.6485C309.035 16.6485 306.647 14.2607 306.647 11.3152C306.647 8.36967 309.035 5.98185 311.98 5.98185C314.926 5.98185 317.313 8.36967 317.313 11.3152ZM386 11.3152V10.3152H387V11.3152H386ZM391.333 103.722C391.333 106.668 388.946 109.055 386 109.055C383.054 109.055 380.667 106.668 380.667 103.722C380.667 100.777 383.054 98.3888 386 98.3888C388.946 98.3888 391.333 100.777 391.333 103.722ZM311.98 10.3152H386V12.3152H311.98V10.3152ZM387 11.3152V103.722H385V11.3152H387Z" fill="white"/>
<g opacity="0.7">
<path d="M120.152 1.25409L123.946 1.39787L105.06 22.1753L101.236 22.1753L120.152 1.25409Z" fill="#00E37E"/>
<path d="M129.965 1.25409L133.759 1.39787L114.873 22.1753L111.049 22.1753L129.965 1.25409Z" fill="#00E37E"/>
<path d="M139.777 1.25409L143.572 1.39787L124.686 22.1753L120.861 22.1753L139.777 1.25409Z" fill="#00E37E"/>
<path d="M149.59 1.25409L153.385 1.39787L134.499 22.1753L130.674 22.1753L149.59 1.25409Z" fill="#00E37E"/>
<path d="M159.403 1.25409L163.198 1.39787L144.312 22.1753L140.487 22.1753L159.403 1.25409Z" fill="#00E37E"/>
<path d="M169.216 1.25409L173.01 1.39787L154.124 22.1753L150.3 22.1753L169.216 1.25409Z" fill="#00E37E"/>
<path d="M179.029 1.25409L182.823 1.39787L163.937 22.1753L160.113 22.1753L179.029 1.25409Z" fill="#00E37E"/>
<path d="M188.842 1.25409L192.636 1.39787L173.75 22.1753L169.925 22.1753L188.842 1.25409Z" fill="#00E37E"/>
<path d="M198.654 1.25409L202.449 1.39787L183.563 22.1753L179.738 22.1753L198.654 1.25409Z" fill="#00E37E"/>
<path d="M208.467 1.25409L212.262 1.39787L193.376 22.1753L189.551 22.1753L208.467 1.25409Z" fill="#00E37E"/>
<path d="M218.28 1.25409L222.075 1.39787L203.188 22.1753L199.364 22.1753L218.28 1.25409Z" fill="#00E37E"/>
<path d="M228.093 1.25409L231.887 1.39787L213.001 22.1753L209.177 22.1753L228.093 1.25409Z" fill="#00E37E"/>
<path d="M237.905 1.25409L241.7 1.39787L222.814 22.1753L218.989 22.1753L237.905 1.25409Z" fill="#00E37E"/>
<path d="M247.718 1.25409L251.513 1.39787L232.627 22.1753L228.802 22.1753L247.718 1.25409Z" fill="#00E37E"/>
<path d="M257.531 1.25409L261.326 1.39787L242.44 22.1753L238.615 22.1753L257.531 1.25409Z" fill="#00E37E"/>
<path d="M267.344 1.25409L271.139 1.39787L252.252 22.1753L248.428 22.1753L267.344 1.25409Z" fill="#00E37E"/>
<path d="M277.157 1.25409L280.952 1.39787L262.065 22.1753L258.241 22.1753L277.157 1.25409Z" fill="#00E37E"/>
<path d="M286.97 1.25409L290.764 1.39787L271.878 22.1753L268.054 22.1753L286.97 1.25409Z" fill="#00E37E"/>
</g>
</svg>
