<svg width="294" height="1420" viewBox="0 0 294 1420" fill="none" xmlns="http://www.w3.org/2000/svg">
<path d="M6 6V5H5V6H6ZM0.666667 1414.5C0.666667 1417.45 3.05448 1419.83 6 1419.83C8.94552 1419.83 11.3333 1417.45 11.3333 1414.5C11.3333 1411.55 8.94552 1409.17 6 1409.17C3.05448 1409.17 0.666667 1411.55 0.666667 1414.5ZM282.667 6C282.667 8.94552 285.054 11.3333 288 11.3333C290.946 11.3333 293.333 8.94552 293.333 6C293.333 3.05448 290.946 0.666667 288 0.666667C285.054 0.666667 282.667 3.05448 282.667 6ZM5 6V1414.5H7V6H5ZM6 7H288V5H6V7Z" fill="white"/>
</svg>
