<svg width="206" height="52" viewBox="0 0 206 52" fill="none" xmlns="http://www.w3.org/2000/svg">
<path d="M205.333 5.5C205.333 8.44552 202.946 10.8333 200 10.8333C197.054 10.8333 194.667 8.44552 194.667 5.5C194.667 2.55448 197.054 0.166667 200 0.166667C202.946 0.166667 205.333 2.55448 205.333 5.5ZM200 46.5H201V47.5H200V46.5ZM11.3333 46.5C11.3333 49.4455 8.94553 51.8333 6 51.8333C3.05447 51.8333 0.666672 49.4455 0.666672 46.5C0.666672 43.5545 3.05447 41.1667 6 41.1667C8.94553 41.1667 11.3333 43.5545 11.3333 46.5ZM201 5.5V46.5H199V5.5H201ZM200 47.5H6V45.5H200V47.5Z" fill="#00FF8E"/>
</svg>
