<svg width="207" height="52" viewBox="0 0 207 52" fill="none" xmlns="http://www.w3.org/2000/svg">
<path d="M0.666667 5.5C0.666667 8.44552 3.05448 10.8333 6 10.8333C8.94552 10.8333 11.3333 8.44552 11.3333 5.5C11.3333 2.55448 8.94552 0.166667 6 0.166667C3.05448 0.166667 0.666667 2.55448 0.666667 5.5ZM6 46.5H5V47.5H6V46.5ZM195.667 46.5C195.667 49.4455 198.054 51.8333 201 51.8333C203.946 51.8333 206.333 49.4455 206.333 46.5C206.333 43.5545 203.946 41.1667 201 41.1667C198.054 41.1667 195.667 43.5545 195.667 46.5ZM5 5.5V46.5H7V5.5H5ZM6 47.5H201V45.5H6V47.5Z" fill="#00FF8E"/>
</svg>
