<svg width="87" height="38" viewBox="0 0 87 38" fill="none" xmlns="http://www.w3.org/2000/svg">
<path d="M86.7819 3.86328C86.7819 5.97315 85.0715 7.68354 82.9617 7.68354C80.8518 7.68354 79.1414 5.97315 79.1414 3.86328C79.1414 1.75341 80.8518 0.0430262 82.9617 0.0430262C85.0715 0.0430262 86.7819 1.75341 86.7819 3.86328ZM82.9617 33.2315H83.678V33.9478H82.9617V33.2315ZM7.82025 33.2315C7.82025 35.3414 6.10987 37.0517 4 37.0517C1.89013 37.0517 0.179749 35.3414 0.179749 33.2315C0.179749 31.1216 1.89013 29.4112 4 29.4112C6.10987 29.4112 7.82025 31.1216 7.82025 33.2315ZM83.678 3.86328V33.2315H82.2454V3.86328H83.678ZM82.9617 33.9478H4V32.5152H82.9617V33.9478Z" fill="#00FF8E"/>
</svg>
