<svg width="599" height="44" viewBox="0 0 599 44" fill="none" xmlns="http://www.w3.org/2000/svg">
<path d="M598.333 21.8913C598.333 18.9457 595.946 16.5579 593 16.5579C590.054 16.5579 587.667 18.9457 587.667 21.8913C587.667 24.8368 590.054 27.2246 593 27.2246C595.946 27.2246 598.333 24.8368 598.333 21.8913ZM364.202 21.8913V20.8913H363.738L363.438 21.2459L364.202 21.8913ZM350.776 37.7825V38.7825H351.241L351.54 38.4278L350.776 37.7825ZM252.543 37.7825C252.543 34.8369 250.155 32.4491 247.21 32.4491C244.264 32.4491 241.876 34.8369 241.876 37.7825C241.876 40.728 244.264 43.1158 247.21 43.1158C250.155 43.1158 252.543 40.728 252.543 37.7825ZM593 20.8913H364.202V22.8913H593V20.8913ZM363.438 21.2459L350.013 37.1371L351.54 38.4278L364.966 22.5366L363.438 21.2459ZM350.776 36.7825H247.21V38.7825H350.776V36.7825Z" fill="white"/>
<path d="M0.666667 21.8912C0.666667 24.8367 3.05448 27.2245 6 27.2245C8.94552 27.2245 11.3333 24.8367 11.3333 21.8912C11.3333 18.9457 8.94552 16.5579 6 16.5579C3.05448 16.5579 0.666667 18.9457 0.666667 21.8912ZM236.798 21.8912V22.8912H237.262L237.562 22.5365L236.798 21.8912ZM250.224 6V5H249.759L249.46 5.35465L250.224 6ZM348.457 6C348.457 8.94552 350.845 11.3333 353.79 11.3333C356.736 11.3333 359.124 8.94552 359.124 6C359.124 3.05448 356.736 0.666667 353.79 0.666667C350.845 0.666667 348.457 3.05448 348.457 6ZM6 22.8912H236.798V20.8912H6V22.8912ZM237.562 22.5365L250.987 6.64535L249.46 5.35465L236.034 21.2458L237.562 22.5365ZM250.224 7H353.79V5H250.224V7Z" fill="white"/>
<g opacity="0.7">
<path d="M256.833 15.4964L259.038 15.58L248.062 27.6545L245.84 27.6545L256.833 15.4964Z" fill="#00E37E"/>
<path d="M262.535 15.4964L264.74 15.58L253.765 27.6545L251.542 27.6545L262.535 15.4964Z" fill="#00E37E"/>
<path d="M268.238 15.4964L270.443 15.58L259.467 27.6545L257.245 27.6545L268.238 15.4964Z" fill="#00E37E"/>
<path d="M273.94 15.4964L276.145 15.58L265.17 27.6545L262.947 27.6545L273.94 15.4964Z" fill="#00E37E"/>
<path d="M279.643 15.4964L281.848 15.58L270.873 27.6545L268.65 27.6545L279.643 15.4964Z" fill="#00E37E"/>
<path d="M285.346 15.4964L287.551 15.58L276.575 27.6545L274.353 27.6545L285.346 15.4964Z" fill="#00E37E"/>
<path d="M291.048 15.4964L293.253 15.58L282.278 27.6545L280.055 27.6545L291.048 15.4964Z" fill="#00E37E"/>
<path d="M296.751 15.4964L298.956 15.58L287.981 27.6545L285.758 27.6545L296.751 15.4964Z" fill="#00E37E"/>
<path d="M302.454 15.4964L304.659 15.58L293.683 27.6545L291.461 27.6545L302.454 15.4964Z" fill="#00E37E"/>
<path d="M308.156 15.4964L310.361 15.58L299.386 27.6545L297.163 27.6545L308.156 15.4964Z" fill="#00E37E"/>
<path d="M313.859 15.4964L316.064 15.58L305.089 27.6545L302.866 27.6545L313.859 15.4964Z" fill="#00E37E"/>
<path d="M319.562 15.4964L321.767 15.58L310.791 27.6545L308.569 27.6545L319.562 15.4964Z" fill="#00E37E"/>
<path d="M325.264 15.4964L327.469 15.58L316.494 27.6545L314.271 27.6545L325.264 15.4964Z" fill="#00E37E"/>
<path d="M330.967 15.4964L333.172 15.58L322.196 27.6545L319.974 27.6545L330.967 15.4964Z" fill="#00E37E"/>
<path d="M336.669 15.4964L338.874 15.58L327.899 27.6545L325.676 27.6545L336.669 15.4964Z" fill="#00E37E"/>
<path d="M342.372 15.4964L344.577 15.58L333.601 27.6545L331.379 27.6545L342.372 15.4964Z" fill="#00E37E"/>
<path d="M348.075 15.4964L350.28 15.58L339.304 27.6545L337.082 27.6545L348.075 15.4964Z" fill="#00E37E"/>
<path d="M353.777 15.4964L355.982 15.58L345.007 27.6545L342.784 27.6545L353.777 15.4964Z" fill="#00E37E"/>
</g>
</svg>
