<svg width="304" height="40" viewBox="0 0 304 40" fill="none" xmlns="http://www.w3.org/2000/svg">
<path d="M304 19.8913C304 17.6821 302.209 15.8913 300 15.8913C297.791 15.8913 296 17.6821 296 19.8913C296 22.1004 297.791 23.8913 300 23.8913C302.209 23.8913 304 22.1004 304 19.8913ZM220.071 19.8913V19.1413H219.738L219.515 19.3887L220.071 19.8913ZM205.725 35.7825V36.5325H206.058L206.282 36.285L205.725 35.7825ZM99.0544 35.7825C99.0544 33.5733 97.2635 31.7825 95.0544 31.7825C92.8452 31.7825 91.0544 33.5733 91.0544 35.7825C91.0544 37.9916 92.8452 39.7825 95.0544 39.7825C97.2635 39.7825 99.0544 37.9916 99.0544 35.7825ZM300 19.1413H220.071V20.6413H300V19.1413ZM219.515 19.3887L205.168 35.2799L206.282 36.285L220.628 20.3939L219.515 19.3887ZM205.725 35.0325H95.0544V36.5325H205.725V35.0325Z" fill="white"/>
<path d="M0 19.8912C0 22.1003 1.79086 23.8912 4 23.8912C6.20914 23.8912 8 22.1003 8 19.8912C8 17.6821 6.20914 15.8912 4 15.8912C1.79086 15.8912 0 17.6821 0 19.8912ZM83.9288 19.8912V20.6412H84.2621L84.4855 20.3938L83.9288 19.8912ZM98.275 4V3.25H97.9417L97.7183 3.49742L98.275 4ZM204.946 4C204.946 6.20914 206.736 8 208.946 8C211.155 8 212.946 6.20914 212.946 4C212.946 1.79086 211.155 0 208.946 0C206.736 0 204.946 1.79086 204.946 4ZM4 20.6412H83.9288V19.1412H4V20.6412ZM84.4855 20.3938L98.8317 4.50258L97.7183 3.49742L83.3721 19.3886L84.4855 20.3938ZM98.275 4.75H208.946V3.25H98.275V4.75Z" fill="white"/>
<g opacity="0.7">
<path d="M105.337 13.4965L107.694 13.5801L95.9656 25.6546L93.5906 25.6546L105.337 13.4965Z" fill="#00E37E"/>
<path d="M111.431 13.4965L113.788 13.5801L102.059 25.6546L99.6843 25.6546L111.431 13.4965Z" fill="#00E37E"/>
<path d="M117.525 13.4965L119.881 13.5801L108.153 25.6546L105.778 25.6546L117.525 13.4965Z" fill="#00E37E"/>
<path d="M123.618 13.4965L125.975 13.5801L114.246 25.6546L111.871 25.6546L123.618 13.4965Z" fill="#00E37E"/>
<path d="M129.712 13.4965L132.069 13.5801L120.341 25.6546L117.966 25.6546L129.712 13.4965Z" fill="#00E37E"/>
<path d="M135.806 13.4965L138.162 13.5801L126.434 25.6546L124.059 25.6546L135.806 13.4965Z" fill="#00E37E"/>
<path d="M141.9 13.4965L144.256 13.5801L132.528 25.6546L130.153 25.6546L141.9 13.4965Z" fill="#00E37E"/>
<path d="M147.993 13.4965L150.35 13.5801L138.622 25.6546L136.247 25.6546L147.993 13.4965Z" fill="#00E37E"/>
<path d="M154.087 13.4965L156.444 13.5801L144.716 25.6546L142.341 25.6546L154.087 13.4965Z" fill="#00E37E"/>
<path d="M160.181 13.4965L162.538 13.5801L150.809 25.6546L148.434 25.6546L160.181 13.4965Z" fill="#00E37E"/>
<path d="M166.275 13.4965L168.631 13.5801L156.903 25.6546L154.528 25.6546L166.275 13.4965Z" fill="#00E37E"/>
<path d="M172.369 13.4965L174.725 13.5801L162.997 25.6546L160.622 25.6546L172.369 13.4965Z" fill="#00E37E"/>
<path d="M178.462 13.4965L180.819 13.5801L169.091 25.6546L166.716 25.6546L178.462 13.4965Z" fill="#00E37E"/>
<path d="M184.556 13.4965L186.913 13.5801L175.184 25.6546L172.809 25.6546L184.556 13.4965Z" fill="#00E37E"/>
<path d="M190.65 13.4965L193.006 13.5801L181.278 25.6546L178.903 25.6546L190.65 13.4965Z" fill="#00E37E"/>
<path d="M196.743 13.4965L199.1 13.5801L187.371 25.6546L184.996 25.6546L196.743 13.4965Z" fill="#00E37E"/>
<path d="M202.838 13.4965L205.194 13.5801L193.466 25.6546L191.091 25.6546L202.838 13.4965Z" fill="#00E37E"/>
<path d="M208.931 13.4965L211.288 13.5801L199.559 25.6546L197.184 25.6546L208.931 13.4965Z" fill="#00E37E"/>
</g>
</svg>
