<svg width="1196" height="70" viewBox="0 0 1196 70" fill="none" xmlns="http://www.w3.org/2000/svg">
<path d="M1195.33 35C1195.33 32.0545 1192.95 29.6667 1190 29.6667C1187.05 29.6667 1184.67 32.0545 1184.67 35C1184.67 37.9455 1187.05 40.3333 1190 40.3333C1192.95 40.3333 1195.33 37.9455 1195.33 35ZM715 35V34H714.536L714.236 34.3546L715 35ZM690.5 64V65H690.964L691.264 64.6454L690.5 64ZM506.833 64C506.833 61.0545 504.445 58.6667 501.5 58.6667C498.555 58.6667 496.167 61.0545 496.167 64C496.167 66.9455 498.555 69.3333 501.5 69.3333C504.445 69.3333 506.833 66.9455 506.833 64ZM1190 34H715V36H1190V34ZM714.236 34.3546L689.736 63.3546L691.264 64.6454L715.764 35.6454L714.236 34.3546ZM690.5 63H501.5V65H690.5V63Z" fill="white"/>
<path d="M0.666667 35C0.666667 37.9455 3.05448 40.3333 6 40.3333C8.94552 40.3333 11.3333 37.9455 11.3333 35C11.3333 32.0545 8.94552 29.6667 6 29.6667C3.05448 29.6667 0.666667 32.0545 0.666667 35ZM482.5 35V36H482.964L483.264 35.6454L482.5 35ZM507 6V5H506.536L506.236 5.35465L507 6ZM690.667 6C690.667 8.94552 693.055 11.3333 696 11.3333C698.945 11.3333 701.333 8.94552 701.333 6C701.333 3.05448 698.945 0.666667 696 0.666667C693.055 0.666667 690.667 3.05448 690.667 6ZM6 36H482.5V34H6V36ZM483.264 35.6454L507.764 6.64535L506.236 5.35465L481.736 34.3546L483.264 35.6454ZM507 7H696V5H507V7Z" fill="white"/>
<g opacity="0.7">
<path d="M519.061 23.33L523.085 23.4825L503.056 45.5175L499 45.5175L519.061 23.33Z" fill="#00E37E"/>
<path d="M529.468 23.33L533.492 23.4825L513.463 45.5175L509.407 45.5175L529.468 23.33Z" fill="#00E37E"/>
<path d="M539.874 23.33L543.899 23.4825L523.869 45.5175L519.813 45.5175L539.874 23.33Z" fill="#00E37E"/>
<path d="M550.281 23.33L554.305 23.4825L534.276 45.5175L530.22 45.5175L550.281 23.33Z" fill="#00E37E"/>
<path d="M560.688 23.33L564.712 23.4825L544.683 45.5175L540.627 45.5175L560.688 23.33Z" fill="#00E37E"/>
<path d="M571.095 23.33L575.119 23.4825L555.09 45.5175L551.034 45.5175L571.095 23.33Z" fill="#00E37E"/>
<path d="M581.502 23.33L585.526 23.4825L565.497 45.5175L561.441 45.5175L581.502 23.33Z" fill="#00E37E"/>
<path d="M591.908 23.33L595.933 23.4825L575.903 45.5175L571.847 45.5175L591.908 23.33Z" fill="#00E37E"/>
<path d="M602.315 23.33L606.339 23.4825L586.31 45.5175L582.254 45.5175L602.315 23.33Z" fill="#00E37E"/>
<path d="M612.722 23.33L616.746 23.4825L596.717 45.5175L592.661 45.5175L612.722 23.33Z" fill="#00E37E"/>
<path d="M623.128 23.33L627.153 23.4825L607.123 45.5175L603.067 45.5175L623.128 23.33Z" fill="#00E37E"/>
<path d="M633.535 23.33L637.559 23.4825L617.53 45.5175L613.474 45.5175L633.535 23.33Z" fill="#00E37E"/>
<path d="M643.942 23.33L647.966 23.4825L627.937 45.5175L623.881 45.5175L643.942 23.33Z" fill="#00E37E"/>
<path d="M654.349 23.33L658.373 23.4825L638.344 45.5175L634.288 45.5175L654.349 23.33Z" fill="#00E37E"/>
<path d="M664.755 23.33L668.78 23.4825L648.75 45.5175L644.694 45.5175L664.755 23.33Z" fill="#00E37E"/>
<path d="M675.162 23.33L679.186 23.4825L659.157 45.5175L655.101 45.5175L675.162 23.33Z" fill="#00E37E"/>
<path d="M685.569 23.33L689.593 23.4825L669.564 45.5175L665.508 45.5175L685.569 23.33Z" fill="#00E37E"/>
<path d="M695.976 23.33L700 23.4825L679.971 45.5175L675.915 45.5175L695.976 23.33Z" fill="#00E37E"/>
</g>
</svg>
