<svg width="289" height="81" viewBox="0 0 289 81" fill="none" xmlns="http://www.w3.org/2000/svg">
<path d="M54.6232 8.24814C54.6232 11.1937 57.0111 13.5815 59.9566 13.5815C62.9021 13.5815 65.2899 11.1937 65.2899 8.24814C65.2899 5.30262 62.9021 2.9148 59.9566 2.9148C57.0111 2.9148 54.6232 5.30262 54.6232 8.24814ZM6 8.24814V7.24814H5V8.24814H6ZM0.666667 75.6079C0.666667 78.5535 3.05448 80.9413 6 80.9413C8.94552 80.9413 11.3333 78.5535 11.3333 75.6079C11.3333 72.6624 8.94552 70.2746 6 70.2746C3.05448 70.2746 0.666667 72.6624 0.666667 75.6079ZM59.9566 7.24814H6V9.24814H59.9566V7.24814ZM5 8.24814V75.6079H7V8.24814H5Z" fill="white"/>
<path d="M234.377 8.24814C234.377 11.1937 231.989 13.5815 229.043 13.5815C226.098 13.5815 223.71 11.1937 223.71 8.24814C223.71 5.30262 226.098 2.9148 229.043 2.9148C231.989 2.9148 234.377 5.30262 234.377 8.24814ZM283 8.24814V7.24814H284V8.24814H283ZM288.333 75.6079C288.333 78.5535 285.946 80.9413 283 80.9413C280.054 80.9413 277.667 78.5535 277.667 75.6079C277.667 72.6624 280.054 70.2746 283 70.2746C285.946 70.2746 288.333 72.6624 288.333 75.6079ZM229.043 7.24814H283V9.24814H229.043V7.24814ZM284 8.24814V75.6079H282V8.24814H284Z" fill="white"/>
<g opacity="0.7">
<path d="M89.2105 0.914162L91.9766 1.01897L78.2096 16.1646L75.4217 16.1646L89.2105 0.914162Z" fill="#00E37E"/>
<path d="M96.3637 0.914162L99.1298 1.01897L85.3628 16.1646L82.5749 16.1646L96.3637 0.914162Z" fill="#00E37E"/>
<path d="M103.517 0.914162L106.283 1.01897L92.5158 16.1646L89.7279 16.1646L103.517 0.914162Z" fill="#00E37E"/>
<path d="M110.67 0.914162L113.436 1.01897L99.6687 16.1646L96.8808 16.1646L110.67 0.914162Z" fill="#00E37E"/>
<path d="M117.823 0.914162L120.589 1.01897L106.822 16.1646L104.034 16.1646L117.823 0.914162Z" fill="#00E37E"/>
<path d="M124.976 0.914162L127.742 1.01897L113.975 16.1646L111.187 16.1646L124.976 0.914162Z" fill="#00E37E"/>
<path d="M132.129 0.914162L134.895 1.01897L121.128 16.1646L118.34 16.1646L132.129 0.914162Z" fill="#00E37E"/>
<path d="M139.282 0.914162L142.048 1.01897L128.281 16.1646L125.493 16.1646L139.282 0.914162Z" fill="#00E37E"/>
<path d="M146.435 0.914162L149.201 1.01897L135.434 16.1646L132.646 16.1646L146.435 0.914162Z" fill="#00E37E"/>
<path d="M153.588 0.914162L156.354 1.01897L142.587 16.1646L139.799 16.1646L153.588 0.914162Z" fill="#00E37E"/>
<path d="M160.741 0.914162L163.507 1.01897L149.74 16.1646L146.952 16.1646L160.741 0.914162Z" fill="#00E37E"/>
<path d="M167.894 0.914162L170.66 1.01897L156.893 16.1646L154.105 16.1646L167.894 0.914162Z" fill="#00E37E"/>
<path d="M175.047 0.914162L177.813 1.01897L164.046 16.1646L161.258 16.1646L175.047 0.914162Z" fill="#00E37E"/>
<path d="M182.2 0.914162L184.966 1.01897L171.199 16.1646L168.411 16.1646L182.2 0.914162Z" fill="#00E37E"/>
<path d="M189.353 0.914162L192.119 1.01897L178.352 16.1646L175.564 16.1646L189.353 0.914162Z" fill="#00E37E"/>
<path d="M196.506 0.914162L199.272 1.01897L185.505 16.1646L182.717 16.1646L196.506 0.914162Z" fill="#00E37E"/>
<path d="M203.659 0.914162L206.425 1.01897L192.658 16.1646L189.87 16.1646L203.659 0.914162Z" fill="#00E37E"/>
<path d="M210.812 0.914162L213.578 1.01897L199.811 16.1646L197.023 16.1646L210.812 0.914162Z" fill="#00E37E"/>
</g>
</svg>
