<svg width="186" height="53" viewBox="0 0 186 53" fill="none" xmlns="http://www.w3.org/2000/svg">
<path d="M34.6725 5.30025C34.6725 7.50939 36.4633 9.30025 38.6725 9.30025C40.8816 9.30025 42.6725 7.50939 42.6725 5.30025C42.6725 3.09111 40.8816 1.30025 38.6725 1.30025C36.4633 1.30025 34.6725 3.09111 34.6725 5.30025ZM4 5.30025V4.55025H3.25V5.30025H4ZM0 48.5856C0 50.7947 1.79086 52.5856 4 52.5856C6.20914 52.5856 8 50.7947 8 48.5856C8 46.3765 6.20914 44.5856 4 44.5856C1.79086 44.5856 0 46.3765 0 48.5856ZM38.6725 4.55025H4V6.05025H38.6725V4.55025ZM3.25 5.30025V48.5856H4.75V5.30025H3.25Z" fill="white"/>
<path d="M151.328 5.30025C151.328 7.50939 149.537 9.30025 147.328 9.30025C145.118 9.30025 143.328 7.50939 143.328 5.30025C143.328 3.09111 145.118 1.30025 147.328 1.30025C149.537 1.30025 151.328 3.09111 151.328 5.30025ZM182 5.30025V4.55025H182.75V5.30025H182ZM186 48.5856C186 50.7947 184.209 52.5856 182 52.5856C179.791 52.5856 178 50.7947 178 48.5856C178 46.3765 179.791 44.5856 182 44.5856C184.209 44.5856 186 46.3765 186 48.5856ZM147.328 4.55025H182V6.05025H147.328V4.55025ZM182.75 5.30025V48.5856H181.25V5.30025H182.75Z" fill="white"/>
<g opacity="0.7">
<path d="M57.4708 0.58744L59.2482 0.654792L50.4016 10.3874L48.6101 10.3874L57.4708 0.58744Z" fill="#00E37E"/>
<path d="M62.0677 0.58744L63.8452 0.654792L54.9985 10.3874L53.207 10.3874L62.0677 0.58744Z" fill="#00E37E"/>
<path d="M66.6641 0.58744L68.4416 0.654792L59.595 10.3874L57.8035 10.3874L66.6641 0.58744Z" fill="#00E37E"/>
<path d="M71.2603 0.58744L73.0378 0.654792L64.1911 10.3874L62.3997 10.3874L71.2603 0.58744Z" fill="#00E37E"/>
<path d="M75.857 0.58744L77.6345 0.654792L68.7878 10.3874L66.9963 10.3874L75.857 0.58744Z" fill="#00E37E"/>
<path d="M80.4537 0.58744L82.2312 0.654792L73.3845 10.3874L71.593 10.3874L80.4537 0.58744Z" fill="#00E37E"/>
<path d="M85.0499 0.58744L86.8273 0.654792L77.9807 10.3874L76.1892 10.3874L85.0499 0.58744Z" fill="#00E37E"/>
<path d="M89.6468 0.58744L91.4243 0.654792L82.5776 10.3874L80.7861 10.3874L89.6468 0.58744Z" fill="#00E37E"/>
<path d="M94.2432 0.58744L96.0207 0.654792L87.1741 10.3874L85.3826 10.3874L94.2432 0.58744Z" fill="#00E37E"/>
<path d="M98.8399 0.58744L100.617 0.654792L91.7707 10.3874L89.9793 10.3874L98.8399 0.58744Z" fill="#00E37E"/>
<path d="M103.436 0.58744L105.214 0.654792L96.3672 10.3874L94.5757 10.3874L103.436 0.58744Z" fill="#00E37E"/>
<path d="M108.033 0.58744L109.811 0.654792L100.964 10.3874L99.1724 10.3874L108.033 0.58744Z" fill="#00E37E"/>
<path d="M112.629 0.58744L114.407 0.654792L105.56 10.3874L103.769 10.3874L112.629 0.58744Z" fill="#00E37E"/>
<path d="M117.226 0.58744L119.003 0.654792L110.157 10.3874L108.365 10.3874L117.226 0.58744Z" fill="#00E37E"/>
<path d="M121.823 0.58744L123.6 0.654792L114.753 10.3874L112.962 10.3874L121.823 0.58744Z" fill="#00E37E"/>
<path d="M126.419 0.58744L128.196 0.654792L119.35 10.3874L117.558 10.3874L126.419 0.58744Z" fill="#00E37E"/>
<path d="M131.016 0.58744L132.793 0.654792L123.947 10.3874L122.155 10.3874L131.016 0.58744Z" fill="#00E37E"/>
<path d="M135.612 0.58744L137.39 0.654792L128.543 10.3874L126.751 10.3874L135.612 0.58744Z" fill="#00E37E"/>
</g>
</svg>
