<svg width="298" height="378" viewBox="0 0 298 378" fill="none" xmlns="http://www.w3.org/2000/svg">
<path fill-rule="evenodd" clip-rule="evenodd" d="M297 303.329V29.0534L272.333 1.2661L1 1.2661V303.329H297Z" fill="#00522A"/>
<path d="M1 337.895L35.0789 376.459H173.829L178.701 364.184L191.842 324.263H258.539H297V303.329H1V337.895Z" fill="black"/>
<path d="M258.539 324.263H191.842L178.701 364.184H285.803L297 324.263H258.539Z" fill="#202821"/>
<path d="M297 29.0534H297.559V28.8412L297.418 28.6825L297 29.0534ZM1 337.895H0.441347V338.106L0.58138 338.265L1 337.895ZM35.0789 376.459L34.6603 376.829L34.8271 377.018H35.0789V376.459ZM272.333 1.2661L272.751 0.895228L272.584 0.707445H272.333V1.2661ZM1 1.2661L1 0.707448H0.441347V1.2661H1ZM297 324.263L297.538 324.414L297.559 324.34V324.263H297ZM173.829 376.459V377.018H174.208L174.348 376.665L173.829 376.459ZM191.842 324.263V323.705H191.438L191.311 324.089L191.842 324.263ZM285.803 364.184V364.743H286.226L286.341 364.335L285.803 364.184ZM35.4976 376.089L1.41862 337.525L0.58138 338.265L34.6603 376.829L35.4976 376.089ZM271.916 1.63697L296.582 29.4243L297.418 28.6825L272.751 0.895228L271.916 1.63697ZM1 1.82475L272.333 1.82475V0.707445L1 0.707448L1 1.82475ZM173.829 375.9H35.0789V377.018H173.829V375.9ZM258.539 323.705H191.842V324.822H258.539V323.705ZM297 323.705H258.539V324.822H297V323.705ZM0.441347 1.2661V303.329H1.55865V1.2661H0.441347ZM0.441347 303.329V337.895H1.55865V303.329H0.441347ZM297.559 324.263V303.329H296.441V324.263H297.559ZM297.559 303.329V29.0534H296.441V303.329H297.559ZM1 303.888H297V302.77H1V303.888ZM191.311 324.089L178.171 364.01L179.232 364.359L192.373 324.438L191.311 324.089ZM178.182 363.978L173.31 376.253L174.348 376.665L179.22 364.391L178.182 363.978ZM178.701 364.743H285.803V363.626H178.701V364.743ZM286.341 364.335L297.538 324.414L296.462 324.113L285.265 364.034L286.341 364.335Z" fill="#00FF8E"/>
</svg>
