<svg width="279" height="354" viewBox="0 0 279 354" fill="none" xmlns="http://www.w3.org/2000/svg">
<path fill-rule="evenodd" clip-rule="evenodd" d="M278 284.173V27.5027L254.917 1.49902L1 1.49903V284.173H278Z" fill="#00522A"/>
<path d="M1 316.52L32.8914 352.609H162.735L167.295 341.122L179.592 303.763H242.008H278V284.173H1V316.52Z" fill="black"/>
<path d="M242.008 303.763H179.592L167.295 341.122H267.521L278 303.763H242.008Z" fill="#202821"/>
<path d="M278 27.5027H278.523V27.3041L278.391 27.1556L278 27.5027ZM1 316.52H0.477207V316.718L0.608251 316.866L1 316.52ZM32.8914 352.609L32.4997 352.955L32.6558 353.131H32.8914V352.609ZM254.917 1.49902L255.308 1.15196L255.152 0.97623H254.917V1.49902ZM1 1.49903L1 0.976232H0.477207V1.49903H1ZM278 303.763L278.503 303.905L278.523 303.835V303.763H278ZM162.735 352.609V353.131H163.09L163.221 352.802L162.735 352.609ZM179.592 303.763V303.241H179.214L179.096 303.6L179.592 303.763ZM267.521 341.122V341.645H267.918L268.025 341.263L267.521 341.122ZM33.2832 352.262L1.39175 316.174L0.608251 316.866L32.4997 352.955L33.2832 352.262ZM254.526 1.84609L277.609 27.8498L278.391 27.1556L255.308 1.15196L254.526 1.84609ZM1 2.02182L254.917 2.02182V0.97623L1 0.976232L1 2.02182ZM162.735 352.086H32.8914V353.131H162.735V352.086ZM242.008 303.241H179.592V304.286H242.008V303.241ZM278 303.241H242.008V304.286H278V303.241ZM0.477207 1.49903V284.173H1.52279V1.49903H0.477207ZM0.477207 284.173V316.52H1.52279V284.173H0.477207ZM278.523 303.763V284.173H277.477V303.763H278.523ZM278.523 284.173V27.5027H277.477V284.173H278.523ZM1 284.696H278V283.65H1V284.696ZM179.096 303.6L166.798 340.958L167.791 341.285L180.089 303.927L179.096 303.6ZM166.809 340.929L162.249 352.416L163.221 352.802L167.781 341.315L166.809 340.929ZM167.295 341.645H267.521V340.599H167.295V341.645ZM268.025 341.263L278.503 303.905L277.497 303.622L267.018 340.981L268.025 341.263Z" fill="#00FF8E"/>
</svg>
