<svg width="415" height="116" viewBox="0 0 415 116" fill="none" xmlns="http://www.w3.org/2000/svg">
<path d="M79.1667 12C79.1667 14.9455 81.5545 17.3333 84.5 17.3333C87.4455 17.3333 89.8333 14.9455 89.8333 12C89.8333 9.05448 87.4455 6.66667 84.5 6.66667C81.5545 6.66667 79.1667 9.05448 79.1667 12ZM6 12V11H5V12H6ZM0.666667 110C0.666667 112.946 3.05448 115.333 6 115.333C8.94552 115.333 11.3333 112.946 11.3333 110C11.3333 107.054 8.94552 104.667 6 104.667C3.05448 104.667 0.666667 107.054 0.666667 110ZM84.5 11H6V13H84.5V11ZM5 12V110H7V12H5Z" fill="white"/>
<path d="M335.833 12C335.833 14.9455 333.446 17.3333 330.5 17.3333C327.554 17.3333 325.167 14.9455 325.167 12C325.167 9.05448 327.554 6.66667 330.5 6.66667C333.446 6.66667 335.833 9.05448 335.833 12ZM409 12V11H410V12H409ZM414.333 110C414.333 112.946 411.946 115.333 409 115.333C406.054 115.333 403.667 112.946 403.667 110C403.667 107.054 406.054 104.667 409 104.667C411.946 104.667 414.333 107.054 414.333 110ZM330.5 11H409V13H330.5V11ZM410 12V110H408V12H410Z" fill="white"/>
<g opacity="0.7">
<path d="M107.709 23.2225L127.228 1.63427L130.395 1.75425L110.881 23.2225L107.709 23.2225Z" fill="#00E37E" stroke="white" stroke-width="0.703093"/>
<path d="M118.116 23.2225L137.635 1.63427L140.802 1.75425L121.288 23.2225L118.116 23.2225Z" fill="#00E37E" stroke="white" stroke-width="0.703093"/>
<path d="M128.523 23.2225L148.042 1.63427L151.208 1.75425L131.694 23.2225L128.523 23.2225Z" fill="#00E37E" stroke="white" stroke-width="0.703093"/>
<path d="M138.93 23.2225L158.449 1.63427L161.615 1.75425L142.101 23.2225L138.93 23.2225Z" fill="#00E37E" stroke="white" stroke-width="0.703093"/>
<path d="M149.337 23.2225L168.856 1.63427L172.022 1.75425L152.508 23.2225L149.337 23.2225Z" fill="#00E37E" stroke="white" stroke-width="0.703093"/>
<path d="M159.743 23.2225L179.262 1.63427L182.429 1.75425L162.915 23.2225L159.743 23.2225Z" fill="#00E37E" stroke="white" stroke-width="0.703093"/>
<path d="M170.15 23.2225L189.669 1.63427L192.835 1.75425L173.321 23.2225L170.15 23.2225Z" fill="#00E37E" stroke="white" stroke-width="0.703093"/>
<path d="M180.557 23.2225L200.076 1.63427L203.242 1.75425L183.728 23.2225L180.557 23.2225Z" fill="#00E37E" stroke="white" stroke-width="0.703093"/>
<path d="M190.963 23.2225L210.483 1.63427L213.649 1.75425L194.135 23.2225L190.963 23.2225Z" fill="#00E37E" stroke="white" stroke-width="0.703093"/>
<path d="M201.37 23.2225L220.889 1.63427L224.056 1.75425L204.542 23.2225L201.37 23.2225Z" fill="#00E37E" stroke="white" stroke-width="0.703093"/>
<path d="M211.777 23.2225L231.296 1.63427L234.462 1.75425L214.948 23.2225L211.777 23.2225Z" fill="#00E37E" stroke="white" stroke-width="0.703093"/>
<path d="M222.184 23.2225L241.703 1.63427L244.869 1.75425L225.355 23.2225L222.184 23.2225Z" fill="#00E37E" stroke="white" stroke-width="0.703093"/>
<path d="M232.59 23.2225L252.11 1.63427L255.276 1.75425L235.762 23.2225L232.59 23.2225Z" fill="#00E37E" stroke="white" stroke-width="0.703093"/>
<path d="M242.997 23.2225L262.516 1.63427L265.683 1.75425L246.169 23.2225L242.997 23.2225Z" fill="#00E37E" stroke="white" stroke-width="0.703093"/>
<path d="M253.404 23.2225L272.923 1.63427L276.089 1.75425L256.575 23.2225L253.404 23.2225Z" fill="#00E37E" stroke="white" stroke-width="0.703093"/>
<path d="M263.811 23.2225L283.33 1.63427L286.496 1.75425L266.982 23.2225L263.811 23.2225Z" fill="#00E37E" stroke="white" stroke-width="0.703093"/>
<path d="M274.218 23.2225L293.737 1.63427L296.903 1.75425L277.389 23.2225L274.218 23.2225Z" fill="#00E37E" stroke="white" stroke-width="0.703093"/>
<path d="M284.624 23.2225L304.143 1.63427L307.31 1.75425L287.796 23.2225L284.624 23.2225Z" fill="#00E37E" stroke="white" stroke-width="0.703093"/>
</g>
</svg>
