<svg width="25" height="20" viewBox="0 0 25 20" fill="none" xmlns="http://www.w3.org/2000/svg">
<path fill-rule="evenodd" clip-rule="evenodd" d="M10.938 5.48308C10.938 2.45485 13.3928 0 16.4211 0C18.1991 0 19.6176 0.839909 20.568 2.06032C21.5732 1.85428 22.5369 1.48149 23.4191 0.957391C23.0775 2.02035 22.3624 2.92357 21.4062 3.49991L21.4097 3.50517C22.3174 3.39549 23.2039 3.15143 24.0399 2.78099L24.0381 2.7845C23.4472 3.67 22.7055 4.45029 21.8498 5.08679C21.8954 5.39716 21.9199 5.70752 21.9199 6.01613C21.9199 12.4811 16.9944 20 7.93606 20C5.26501 20.0023 2.64982 19.2353 0.403181 17.7906C0.297412 17.7227 0.207473 17.6329 0.139462 17.5272C0.0714516 17.4215 0.0269582 17.3025 0.00899823 17.1781C-0.00896175 17.0537 3.15536e-05 16.9269 0.0353685 16.8063C0.0707054 16.6857 0.13156 16.5741 0.213807 16.479C0.292019 16.349 0.406068 16.2443 0.542285 16.1774C0.678503 16.1106 0.831111 16.0844 0.981824 16.102C2.588 16.2914 4.19066 16.095 5.6057 15.4778C4.90775 15.1694 4.28291 14.7169 3.7722 14.15C3.26149 13.5831 2.87645 12.9146 2.64235 12.1883C2.59907 12.0532 2.593 11.909 2.62478 11.7707C2.65657 11.6325 2.72503 11.5054 2.82296 11.4028C2.2467 10.897 1.78512 10.2741 1.46911 9.57551C1.1531 8.87696 0.989952 8.11897 0.990591 7.35227V7.29265C0.99055 7.10921 1.05442 6.93149 1.17123 6.79004C1.28803 6.6486 1.45047 6.55227 1.6306 6.51762C1.23306 5.75044 1.02616 4.89878 1.02741 4.03472C1.02741 3.2141 1.03267 2.17955 1.60956 1.24671C1.6712 1.14789 1.75395 1.06393 1.85187 1.00087C1.94979 0.937816 2.06046 0.897217 2.17593 0.881992C2.34337 0.829186 2.5228 0.827863 2.69099 0.878196C2.85918 0.928529 3.00839 1.0282 3.11929 1.1643C5.07392 3.56881 7.86959 5.14027 10.9397 5.56023V5.48308H10.938ZM7.93606 18.2465C6.59447 18.2475 5.26196 18.0265 3.99252 17.5925C5.51941 17.3406 6.95962 16.7127 8.1833 15.7654C8.31154 15.6648 8.40549 15.5269 8.45222 15.3708C8.49896 15.2146 8.49619 15.0479 8.4443 14.8933C8.39241 14.7388 8.29395 14.6042 8.16244 14.5079C8.03093 14.4116 7.87283 14.3584 7.70986 14.3556C7.12283 14.345 6.54616 14.199 6.02484 13.9289C5.50352 13.6588 5.05164 13.272 4.70442 12.7985C5.03758 12.7722 5.36373 12.7144 5.67935 12.6302C5.8514 12.5842 6.00283 12.4813 6.10902 12.3384C6.21521 12.1954 6.2699 12.0207 6.26421 11.8427C6.25852 11.6647 6.19278 11.4938 6.07768 11.3579C5.96258 11.222 5.80489 11.1291 5.63025 11.0942C4.96316 10.959 4.34425 10.6482 3.83748 10.1938C3.3307 9.73944 2.95444 9.158 2.74756 8.50955C3.09825 8.59372 3.46473 8.64457 3.83997 8.65685C4.01145 8.66262 4.18013 8.61233 4.32047 8.51362C4.4608 8.41491 4.56514 8.27315 4.61767 8.10981C4.6702 7.94647 4.66806 7.77047 4.61157 7.60846C4.55508 7.44645 4.44733 7.30726 4.30464 7.21199C3.7814 6.86341 3.35237 6.391 3.05565 5.83671C2.75893 5.28242 2.60371 4.66343 2.60378 4.03472C2.60378 3.74014 2.60904 3.47887 2.62657 3.2404C5.08014 5.74432 8.38706 7.23187 11.8884 7.40663C12.0236 7.4135 12.1585 7.38897 12.2827 7.33496C12.4068 7.28095 12.5168 7.19893 12.6039 7.09532C12.691 6.99171 12.753 6.86933 12.7849 6.73777C12.8168 6.6062 12.8178 6.46904 12.7879 6.33701C12.6591 5.7895 12.6558 5.21995 12.7783 4.67098C12.9008 4.12202 13.1458 3.60787 13.4951 3.16701C13.8444 2.72614 14.2889 2.36999 14.7953 2.1252C15.3016 1.88041 15.8569 1.75333 16.4193 1.75346C18.5831 1.75346 20.1647 3.75767 20.1647 6.01788C20.1647 11.7272 15.8231 18.2465 7.9343 18.2465H7.93606Z" fill="white"/>
</svg>
